<?xml version="1.0" encoding="UTF-8"?>
<svg id="Character_2" data-name="Character 2" xmlns="http://www.w3.org/2000/svg" xmlns:xlink="http://www.w3.org/1999/xlink" viewBox="0 0 500 500">
  <defs>
    <style>
      .cls-1 {
        clip-path: url(#clippath-11);
      }

      .cls-2 {
        fill: #fff;
      }

      .cls-3 {
        opacity: .3;
      }

      .cls-4 {
        fill: #f5f5f5;
      }

      .cls-5 {
        opacity: .6;
      }

      .cls-6 {
        fill: #455a64;
      }

      .cls-7 {
        clip-path: url(#clippath-2);
      }

      .cls-8 {
        clip-path: url(#clippath-6);
      }

      .cls-9 {
        fill: #e0e0e0;
      }

      .cls-10, .cls-11 {
        fill: #ff725e;
      }

      .cls-12 {
        clip-path: url(#clippath-7);
      }

      .cls-13 {
        clip-path: url(#clippath-4);
      }

      .cls-14 {
        fill: #eb996e;
      }

      .cls-15 {
        fill: #ffbe9d;
      }

      .cls-16 {
        clip-path: url(#clippath-9);
      }

      .cls-17 {
        clip-path: url(#clippath);
      }

      .cls-18 {
        fill: #ebebeb;
      }

      .cls-19 {
        fill: none;
      }

      .cls-20 {
        clip-path: url(#clippath-3);
      }

      .cls-21 {
        clip-path: url(#clippath-8);
      }

      .cls-22 {
        clip-path: url(#clippath-5);
      }

      .cls-11 {
        font-family: Caladea-BoldItalic, Caladea;
        font-size: 12px;
        font-style: italic;
        font-weight: 700;
      }

      .cls-23 {
        clip-path: url(#clippath-10);
      }

      .cls-24 {
        fill: #263238;
      }
    </style>
    <clipPath id="clippath">
      <rect class="cls-19" width="500" height="500"/>
    </clipPath>
    <clipPath id="clippath-2">
      <rect class="cls-19" width="500" height="500"/>
    </clipPath>
    <clipPath id="clippath-3">
      <rect class="cls-19" width="500" height="500"/>
    </clipPath>
    <clipPath id="clippath-4">
      <rect class="cls-19" x="211.17" y="216.98" width="24.35" height="17.62"/>
    </clipPath>
    <clipPath id="clippath-5">
      <rect class="cls-19" width="500" height="500"/>
    </clipPath>
    <clipPath id="clippath-6">
      <rect class="cls-19" x="49.19" y="193.01" width="42.6" height="36.6"/>
    </clipPath>
    <clipPath id="clippath-7">
      <rect class="cls-19" x="87.56" y="455.69" width="42.57" height="14.78"/>
    </clipPath>
    <clipPath id="clippath-8">
      <rect class="cls-19" x="91.33" y="460.22" width="3.32" height="3.31"/>
    </clipPath>
    <clipPath id="clippath-9">
      <rect class="cls-19" x="87.56" y="466.45" width="42.59" height="4.03"/>
    </clipPath>
    <clipPath id="clippath-10">
      <rect class="cls-19" x="74.04" y="460.47" width="3.32" height="3.31"/>
    </clipPath>
    <clipPath id="clippath-11">
      <rect class="cls-19" x="70.27" y="466.7" width="42.59" height="4.03"/>
    </clipPath>
  </defs>
  <g class="cls-17">
    <rect class="cls-18" x="184.9" y="360.83" width="17.89" height="109.69"/>
    <rect class="cls-18" x="411.47" y="361.09" width="17.89" height="109.69"/>
    <rect class="cls-18" x="449.69" y="427.71" width="17.89" height="43.06"/>
    <rect class="cls-18" x="35.47" y="367.76" width="17.89" height="102.75"/>
    <rect class="cls-18" x="72.83" y="289.15" width="17.89" height="181.36"/>
    <rect class="cls-18" x="110.19" y="406.38" width="17.89" height="64.14"/>
    <rect class="cls-18" x="147.55" y="280.8" width="17.89" height="189.72"/>
    <rect class="cls-18" x="222.26" y="297.2" width="17.89" height="173.31"/>
    <rect class="cls-18" x="259.62" y="342.24" width="17.89" height="128.28"/>
    <rect class="cls-18" x="296.98" y="279.5" width="17.89" height="191.01"/>
    <rect class="cls-18" x="334.34" y="246.78" width="17.89" height="223.73"/>
    <rect class="cls-18" x="371.69" y="312.02" width="17.89" height="158.5"/>
    <g class="cls-7">
      <path class="cls-24" d="m466.29,470.73c0,.14-99.08.26-221.28.26s-221.3-.12-221.3-.26,99.06-.26,221.3-.26,221.28.12,221.28.26"/>
    </g>
    <g class="cls-20">
      <path class="cls-9" d="m430.35,57.88v197.74c0,6.38-5.17,11.55-11.55,11.55H124.97c-6.38,0-11.55-5.17-11.55-11.55V57.88c0-6.38,5.17-11.55,11.55-11.55h293.83c6.38,0,11.55,5.17,11.55,11.55"/>
      <rect class="cls-2" x="136.03" y="53.31" width="264.67" height="207.72"/>
      <path class="cls-24" d="m414.42,147.39c4.68,0,8.47,3.79,8.47,8.47s-3.79,8.47-8.47,8.47-8.47-3.79-8.47-8.47,3.79-8.47,8.47-8.47"/>
      <path class="cls-24" d="m126.05,124.71v64.08c0,.67-.54,1.21-1.22,1.21h-1.07c-.67,0-1.22-.54-1.22-1.21v-64.08c0-.67.54-1.21,1.22-1.21h1.07c.67,0,1.22.54,1.22,1.21"/>
      <rect class="cls-10" x="136.03" y="53.4" width="24.79" height="207.63"/>
      <path class="cls-2" d="m161.9,164.39h-23.5c-1.31,0-2.37-1.06-2.37-2.37v-15.91c0-1.31,1.06-2.37,2.37-2.37h23.5v20.64Z"/>
      <path class="cls-2" d="m148.43,83.27h0c-2.5,0-4.52-2.03-4.52-4.54s2.02-4.54,4.52-4.54,4.52,2.03,4.52,4.54-2.02,4.54-4.52,4.54"/>
      <path class="cls-2" d="m152.19,99.55c0,.14-1.83.26-4.08.26s-4.08-.12-4.08-.26,1.82-.26,4.08-.26,4.08.12,4.08.26"/>
      <path class="cls-2" d="m152.91,122.53c0,.14-1.83.26-4.08.26s-4.08-.12-4.08-.26,1.82-.26,4.08-.26,4.08.12,4.08.26"/>
      <path class="cls-2" d="m152.91,180.97c0,.14-1.83.26-4.08.26s-4.08-.12-4.08-.26,1.82-.26,4.08-.26,4.08.12,4.08.26"/>
      <path class="cls-2" d="m152.91,211.11c0,.14-1.83.26-4.08.26s-4.08-.12-4.08-.26,1.82-.26,4.08-.26,4.08.12,4.08.26"/>
      <path class="cls-24" d="m152.91,154.37c0,.14-1.83.26-4.08.26s-4.08-.12-4.08-.26,1.82-.26,4.08-.26,4.08.12,4.08.26"/>
      <rect class="cls-10" x="316.58" y="224.31" width="3.57" height="11.94"/>
      <rect class="cls-10" x="286.8" y="222.58" width="3.57" height="13.67"/>
      <rect class="cls-10" x="294.24" y="219.73" width="3.57" height="16.52"/>
      <rect class="cls-10" x="301.69" y="220.64" width="3.57" height="15.62"/>
      <rect class="cls-10" x="309.13" y="215.35" width="3.57" height="20.9"/>
      <rect class="cls-10" x="324.02" y="215.45" width="3.57" height="20.8"/>
      <rect class="cls-10" x="331.47" y="222.28" width="3.57" height="13.97"/>
      <rect class="cls-10" x="338.91" y="216.37" width="3.57" height="19.88"/>
      <rect class="cls-10" x="346.36" y="211.89" width="3.57" height="24.36"/>
      <rect class="cls-10" x="353.8" y="216.27" width="3.57" height="19.98"/>
      <path class="cls-9" d="m364.82,251.06h-87.7c-3.99,0-7.24-3.25-7.24-7.24v-52.43c0-3.99,3.25-7.24,7.24-7.24h87.7c3.99,0,7.24,3.25,7.24,7.24v52.43c0,3.99-3.25,7.24-7.24,7.24m-87.7-66.2c-3.6,0-6.53,2.93-6.53,6.53v52.43c0,3.6,2.93,6.52,6.53,6.52h87.7c3.6,0,6.53-2.93,6.53-6.52v-52.43c0-3.6-2.93-6.53-6.53-6.53h-87.7Z"/>
      <path class="cls-9" d="m327.05,201.58c0,.1-10.15.19-22.66.19s-22.66-.08-22.66-.19,10.14-.19,22.66-.19,22.66.08,22.66.19"/>
      <polygon class="cls-4" points="180.9 184.74 180.9 249.5 188.74 249.5 199.53 249.5 249.81 249.5 249.81 184.74 180.9 184.74"/>
      <path class="cls-24" d="m215.05,192.08c-11.74,0-21.26,9.52-21.26,21.26s9.52,21.26,21.26,21.26,21.26-9.52,21.26-21.26-9.52-21.26-21.26-21.26m.32,34c-7.21,0-13.06-5.85-13.06-13.06s5.85-13.06,13.06-13.06,13.06,5.85,13.06,13.06-5.85,13.06-13.06,13.06"/>
      <path class="cls-10" d="m215.38,192.09c0,2.26,0,5.31,0,7.87,7.21,0,13.06,5.85,13.06,13.06,0,1.38-.22,2.71-.61,3.96l7.71,2.09c.51-1.82.79-3.74.79-5.73,0-11.63-9.35-21.08-20.94-21.25"/>
      <path class="cls-6" d="m202.31,213.02c0-5.32,3.18-9.89,7.74-11.93l-3.27-7.35c-7.64,3.23-12.99,10.78-12.99,19.59,0,.3.01.6.02.89h8.56c-.04-.4-.06-.8-.06-1.21"/>
      <path class="cls-10" d="m215.37,226.08c-.95,0-1.87-.1-2.76-.3-.33,1.9-.95,5.57-1.44,8.46,1.26.23,2.55.36,3.88.36,9.76,0,17.97-6.57,20.48-15.53l-7.71-2.09c-1.68,5.28-6.62,9.1-12.45,9.1"/>
      <g class="cls-3">
        <g class="cls-13">
          <path d="m215.37,226.08c-.95,0-1.87-.1-2.76-.3-.33,1.9-.95,5.57-1.44,8.46,1.26.23,2.55.36,3.88.36,9.76,0,17.97-6.57,20.48-15.53l-7.71-2.09c-1.68,5.28-6.62,9.1-12.45,9.1"/>
        </g>
      </g>
      <polygon class="cls-24" points="212.55 214.08 211.76 214.08 211.76 215.09 210.67 215.09 210.67 214.08 208.07 214.08 208.07 213.32 210.35 210.26 211.52 210.26 209.41 213.17 210.71 213.17 210.71 212.26 211.76 212.26 211.76 213.17 212.55 213.17 212.55 214.08"/>
      <path class="cls-24" d="m212.88,212.67c0-1.59.88-2.5,2.07-2.5s2.07.9,2.07,2.5-.88,2.5-2.07,2.5-2.07-.9-2.07-2.5m3.02,0c0-1.1-.39-1.55-.95-1.55s-.94.46-.94,1.55.39,1.55.94,1.55.95-.46.95-1.55"/>
      <path class="cls-24" d="m217.48,211.54c0-.81.5-1.33,1.2-1.33s1.19.51,1.19,1.33-.49,1.33-1.19,1.33-1.2-.52-1.2-1.33m1.7,0c0-.52-.2-.77-.5-.77s-.5.26-.5.77.21.77.5.77.5-.25.5-.77m2.37-1.28h.82l-3.3,4.83h-.82l3.3-4.83Zm-.79,3.55c0-.81.5-1.33,1.19-1.33s1.2.52,1.2,1.33-.5,1.33-1.2,1.33-1.19-.52-1.19-1.33m1.7,0c0-.51-.2-.77-.5-.77s-.5.25-.5.77.21.77.5.77.5-.26.5-.77"/>
      <path class="cls-24" d="m232.65,239.97c0,.11-7.88.2-17.59.2s-17.59-.09-17.59-.2,7.88-.2,17.59-.2,17.59.09,17.59.2"/>
      <path class="cls-24" d="m224.81,243.2c0,.11-4.37.2-9.76.2s-9.76-.09-9.76-.2,4.37-.2,9.76-.2,9.76.09,9.76.2"/>
      <path class="cls-9" d="m386.07,89.82s-.35.02-1.03.02c-.7,0-1.71.01-3.02.02-2.68.01-6.61.03-11.69.04-10.2.02-25,.05-43.48.08-37,.02-88.73.06-147.72.09l.36-.26c0,11.61,0,23.65,0,35.97,0,12.7,0,25.09,0,37.06l-.36-.26c58.62.04,109.97.07,146.7.09,18.34.03,33.02.06,43.14.08,5.04.02,8.93.03,11.59.04,1.31.01,2.31.02,3,.02.68,0,1.02.02,1.02.02,0,0-.35.02-1.02.02-.69,0-1.69.01-3,.02-2.66,0-6.56.03-11.59.04-10.12.02-24.8.04-43.14.08-36.72.02-88.08.05-146.7.09h-.36s0-.26,0-.26c0-11.97,0-24.36,0-37.06,0-12.32,0-24.36,0-35.97v-.26h.36c58.99.04,110.72.07,147.72.09,18.48.03,33.28.06,43.48.08,5.08.02,9.01.03,11.69.04,1.32.01,2.32.02,3.02.02.68,0,1.03.02,1.03.02"/>
      <path class="cls-9" d="m386.07,102.12c0,.15-46.33.27-103.47.27s-103.48-.12-103.48-.27,46.32-.26,103.48-.26,103.47.12,103.47.26"/>
      <path class="cls-9" d="m386.07,112.18c0,.15-46.33.27-103.47.27s-103.48-.12-103.48-.27,46.32-.26,103.48-.26,103.47.12,103.47.26"/>
      <path class="cls-9" d="m386.07,122.24c0,.15-46.33.27-103.47.27s-103.48-.12-103.48-.27,46.32-.26,103.48-.26,103.47.12,103.47.26"/>
      <path class="cls-9" d="m386.07,132.3c0,.15-46.33.27-103.47.27s-103.48-.12-103.48-.27,46.32-.26,103.48-.26,103.47.12,103.47.26"/>
      <path class="cls-9" d="m386.07,142.36c0,.15-46.33.27-103.47.27s-103.48-.12-103.48-.27,46.32-.26,103.48-.26,103.47.12,103.47.26"/>
      <path class="cls-9" d="m179.12,152.41c0-.15,46.33-.26,103.47-.26s103.48.12,103.48.26-46.32.27-103.48.27-103.47-.12-103.47-.27"/>
      <path class="cls-9" d="m208.45,163.96c-.15,0-.27-16.6-.27-37.07s.12-37.07.27-37.07.26,16.6.26,37.07-.12,37.07-.26,37.07"/>
      <path class="cls-9" d="m238.26,163.96c-.15,0-.27-16.6-.27-37.07s.12-37.07.27-37.07.26,16.6.26,37.07-.12,37.07-.26,37.07"/>
      <path class="cls-9" d="m268.06,163.96c-.15,0-.27-16.6-.27-37.07s.12-37.07.27-37.07.26,16.6.26,37.07-.12,37.07-.26,37.07"/>
      <path class="cls-9" d="m297.87,163.96c-.15,0-.27-16.6-.27-37.07s.12-37.07.27-37.07.27,16.6.27,37.07-.12,37.07-.27,37.07"/>
      <path class="cls-9" d="m327.67,163.96c-.15,0-.27-16.6-.27-37.07s.12-37.07.27-37.07.26,16.6.26,37.07-.12,37.07-.26,37.07"/>
      <path class="cls-9" d="m356.53,163.96c-.15,0-.27-16.6-.27-37.07s.12-37.07.27-37.07.26,16.6.26,37.07-.12,37.07-.26,37.07"/>
      <path class="cls-9" d="m386.33,163.96c-.15,0-.27-16.6-.27-37.07s.12-37.07.27-37.07.26,16.6.26,37.07-.12,37.07-.26,37.07"/>
      <path class="cls-10" d="m210.27,152.41c0,1-.81,1.81-1.81,1.81s-1.82-.81-1.82-1.81.81-1.81,1.82-1.81,1.81.81,1.81,1.81"/>
      <path class="cls-10" d="m240.07,132.3c0,1-.81,1.81-1.81,1.81s-1.82-.81-1.82-1.81.81-1.81,1.82-1.81,1.81.81,1.81,1.81"/>
      <path class="cls-10" d="m269.88,142.18c0,1-.81,1.81-1.81,1.81s-1.81-.81-1.81-1.81.81-1.81,1.81-1.81,1.81.81,1.81,1.81"/>
      <path class="cls-10" d="m299.5,120.99c1.48,1.94-.72,4.14-2.66,2.66h0c-1.48-1.94.72-4.14,2.66-2.66"/>
      <path class="cls-10" d="m329.65,120.99c1.48,1.94-.72,4.14-2.66,2.66h0c-1.48-1.94.72-4.14,2.66-2.66"/>
      <path class="cls-10" d="m357.85,140.74c1.48,1.94-.72,4.14-2.66,2.66h0c-1.48-1.94.72-4.14,2.66-2.66"/>
      <path class="cls-6" d="m240.07,112.18c0,1-.81,1.81-1.81,1.81s-1.82-.81-1.82-1.81.81-1.81,1.82-1.81,1.81.81,1.81,1.81"/>
      <path class="cls-6" d="m210.27,142.36c0,1-.81,1.81-1.81,1.81s-1.82-.81-1.82-1.81.81-1.81,1.82-1.81,1.81.81,1.81,1.81"/>
      <path class="cls-6" d="m357.86,151.09c1.48,1.94-.72,4.14-2.66,2.66-1.48-1.94.72-4.14,2.66-2.66"/>
      <path class="cls-6" d="m329.49,132.3c0,1-.81,1.81-1.81,1.81s-1.81-.81-1.81-1.81.81-1.81,1.81-1.81,1.81.81,1.81,1.81"/>
      <path class="cls-6" d="m299.99,132.03c0,1-.81,1.81-1.81,1.81s-1.82-.81-1.82-1.81.81-1.81,1.82-1.81,1.81.81,1.81,1.81"/>
      <path class="cls-9" d="m196.01,171.18c0,.15-1.29.27-2.87.27s-2.87-.12-2.87-.27,1.29-.26,2.87-.26,2.87.12,2.87.26"/>
      <path class="cls-9" d="m226.47,171.18c0,.15-1.29.27-2.87.27s-2.87-.12-2.87-.27,1.29-.26,2.87-.26,2.87.12,2.87.26"/>
      <path class="cls-9" d="m256.93,171.18c0,.15-1.28.27-2.87.27s-2.87-.12-2.87-.27,1.29-.26,2.87-.26,2.87.12,2.87.26"/>
      <path class="cls-9" d="m287.4,171.18c0,.15-1.29.27-2.87.27s-2.87-.12-2.87-.27,1.28-.26,2.87-.26,2.87.12,2.87.26"/>
      <path class="cls-9" d="m317.86,171.18c0,.15-1.29.27-2.87.27s-2.87-.12-2.87-.27,1.29-.26,2.87-.26,2.87.12,2.87.26"/>
      <path class="cls-9" d="m345.11,171.18c0,.15-1.28.27-2.87.27s-2.87-.12-2.87-.27,1.28-.26,2.87-.26,2.87.12,2.87.26"/>
      <path class="cls-9" d="m372.35,171.18c0,.15-1.28.27-2.87.27s-2.87-.12-2.87-.27,1.28-.26,2.87-.26,2.87.12,2.87.26"/>
      <path class="cls-9" d="m174.81,162.45c0,.15-1.04.27-2.32.27s-2.32-.12-2.32-.27,1.04-.26,2.32-.26,2.32.12,2.32.26"/>
      <path class="cls-9" d="m174.81,150.75c0,.15-1.04.27-2.32.27s-2.32-.12-2.32-.27,1.04-.26,2.32-.26,2.32.12,2.32.26"/>
      <path class="cls-9" d="m174.81,139.05c0,.15-1.04.27-2.32.27s-2.32-.12-2.32-.27,1.04-.26,2.32-.26,2.32.12,2.32.26"/>
      <path class="cls-9" d="m174.81,127.35c0,.15-1.04.27-2.32.27s-2.32-.12-2.32-.27,1.04-.26,2.32-.26,2.32.12,2.32.26"/>
      <path class="cls-9" d="m174.81,115.65c0,.15-1.04.27-2.32.27s-2.32-.12-2.32-.27,1.04-.26,2.32-.26,2.32.12,2.32.26"/>
      <path class="cls-9" d="m174.81,103.95c0,.15-1.04.27-2.32.27s-2.32-.12-2.32-.27,1.04-.26,2.32-.26,2.32.12,2.32.26"/>
      <path class="cls-9" d="m174.81,92.25c0,.15-1.04.27-2.32.27s-2.32-.12-2.32-.27,1.04-.26,2.32-.26,2.32.12,2.32.26"/>
      <polygon class="cls-10" points="178.92 163.32 178.59 162.38 208.22 151.96 238.18 131.74 267.99 141.63 298.02 121.82 328.1 121.74 328.23 121.83 356.8 142.01 384.49 123.72 385.04 124.55 356.78 143.23 356.5 143.03 327.78 122.74 298.32 122.82 268.14 142.73 238.33 132.85 208.62 152.89 178.92 163.32"/>
      <polygon class="cls-6" points="356.96 152.63 327.78 132.8 297.72 132.8 267.63 112.94 238.46 112.68 208.66 142.86 179.12 142.86 179.12 141.86 208.24 141.86 238.05 111.68 267.94 111.94 298.02 131.8 328.09 131.8 356.62 151.19 385.12 101.12 385.99 101.61 356.96 152.63"/>
      <path class="cls-24" d="m385.76,75.19c0,.14-11.24.26-25.1.26s-25.1-.12-25.1-.26,11.24-.26,25.1-.26,25.1.12,25.1.26"/>
    </g>
    <g class="cls-22">
      <path class="cls-15" d="m131.23,208.44l-3.52,4.4v-7.56h-11.07s-1.23,17.32-.97,21.01c.26,3.69,4.4,14.24,4.4,14.24,0,0,6.24-3.43,11.16-9.76,4.92-6.33,13.1-21.74,13.1-21.74l-8.53-5.15-4.57,4.57Z"/>
      <path class="cls-14" d="m131.93,207.63c.05.05-.52.77-1.45,1.93-.93,1.16-2.23,2.75-3.71,4.48-1.48,1.72-2.88,3.24-3.96,4.27-1.08,1.04-1.84,1.58-1.88,1.52-.05-.06.62-.69,1.62-1.78,1.01-1.09,2.35-2.64,3.83-4.36,2.93-3.46,5.42-6.19,5.55-6.07"/>
      <path class="cls-10" d="m131.6,180.13s-3.16-25.84-15.63-28.49l-6.46,24.84,5.37,17.92,17.81-2.43-1.09-11.84Z"/>
      <path class="cls-10" d="m49.19,197.3l.59,1.85,12.26,38.41s30.21,11.49,41.07,6.94c10.86-4.55,15.88-11.01,15.88-11.01l-2.42-81.76-17.23-2.61-29.71-2.18-19.9,6.38-.54,43.97Z"/>
      <g class="cls-3">
        <g class="cls-8">
          <path d="m86.69,212.27c-11.15-4.61-22.09-11.61-31.41-19.26l-6.09,3.25c4.57,9.23,8.38,17.65,14.68,25.8,2.12,2.74,5.17,5.45,8.39,6.74,4.59,1.83,10.48.5,14.1-2.87,3.62-3.37,6.33-13.26,5.14-21.34-2.03.11-2.94,8.47-4.82,7.69"/>
        </g>
      </g>
      <path class="cls-24" d="m118.27,188.65c-.17.02-.26-3.83-2.04-8.15-1.73-4.33-4.37-7.16-4.22-7.26.04-.04.75.6,1.71,1.83.95,1.22,2.11,3.04,3,5.24.89,2.2,1.34,4.31,1.51,5.85.17,1.54.11,2.5.05,2.5"/>
      <path class="cls-24" d="m118.22,127.62c-1.59.21-3.26-.54-4.16-1.86,1.07.16,2.23.32,3.2-.18.97-.49,1.52-1.92.76-2.7-.59-.61-1.57-.5-2.41-.56-1.97-.14-3.79-1.54-4.44-3.41-.72-2.06-.06-4.3.19-6.46.75-6.28-2.24-12.86-7.45-16.43l-13.55-7.83c-4.91,6.29-6.44,14.76-5.43,22.68,1.02,7.91,4.38,15.35,8.41,22.24,1.18,2.01,2.43,4,4.09,5.62,1.66,1.63,3.78,2.88,6.09,3.12.61-1.9.22-4.09-1-5.67,3.66.23,7.39-1.1,10.07-3.61-.97-.74-1.93-1.48-2.9-2.23,3.06.41,6.28-.62,8.54-2.73"/>
      <path class="cls-15" d="m66.05,105.53c.24-5.66,3.76-10.4,9.21-11.96l16.98-4.85c7.37-1.01,12.57,7.94,13.26,15.35.77,8.23,1.35,16.92.56,23.1-1.58,12.43-11.02,14.3-11.02,14.3,0-.02.17,5.89.26,9.5l-2.77,16.19-22.39-19.12-4.15-42.36c-.01-.21.03.13.04-.15"/>
      <path class="cls-24" d="m103.36,113.52c.06.84-.61,1.57-1.48,1.65-.87.07-1.62-.54-1.68-1.38-.06-.84.61-1.57,1.48-1.65.87-.07,1.63.54,1.68,1.38"/>
      <path class="cls-24" d="m103.79,108.97c-.19.21-1.42-.64-3.13-.58-1.71.03-2.93.95-3.12.75-.09-.09.09-.47.63-.88.53-.41,1.43-.82,2.49-.85,1.06-.03,1.97.34,2.5.72.54.39.73.76.63.85"/>
      <path class="cls-24" d="m88.41,113.54c.05.84-.61,1.57-1.48,1.65-.87.07-1.62-.54-1.68-1.38-.06-.84.61-1.57,1.48-1.65.87-.07,1.63.54,1.68,1.38"/>
      <path class="cls-24" d="m87.57,109.43c-.19.21-1.42-.64-3.13-.58-1.71.03-2.93.95-3.12.75-.09-.09.09-.47.63-.88.53-.41,1.43-.82,2.49-.85,1.06-.03,1.97.34,2.5.72.54.39.73.76.63.85"/>
      <path class="cls-24" d="m93.29,122.69c-.01-.1,1.04-.31,2.76-.58.43-.06.85-.16.91-.46.09-.32-.1-.78-.33-1.28-.44-1.04-.91-2.14-1.39-3.28-1.93-4.67-3.35-8.52-3.16-8.59.19-.08,1.91,3.65,3.85,8.32.47,1.15.91,2.25,1.34,3.3.18.49.48,1.04.28,1.7-.11.33-.42.58-.7.66-.28.09-.52.11-.74.13-1.73.15-2.8.19-2.81.09"/>
      <path class="cls-14" d="m78.52,137.53s4.27,8.38,16.61,6.84l-.08-2.91s-8.14.77-16.53-3.93"/>
      <path class="cls-24" d="m86.86,103.28c-.15.47-1.87.3-3.86.61-2,.26-3.6.9-3.88.49-.12-.2.14-.64.78-1.11.63-.47,1.65-.93,2.85-1.1,1.2-.17,2.31-.01,3.04.26.74.27,1.12.63,1.06.85"/>
      <path class="cls-24" d="m103.08,103.76c-.29.4-1.48.03-2.89.06-1.42-.02-2.6.34-2.89-.06-.13-.19.05-.59.56-.97.5-.38,1.36-.71,2.33-.71.97,0,1.83.33,2.33.71.51.38.69.78.56.97"/>
      <path class="cls-14" d="m86.89,126.02c.2-1.02,1.21-1.83,2.25-1.76.76.05,1.46.55,1.83,1.22.36.67.4,1.5.17,2.23l-.03.16c-.68.79-1.88,1.1-2.84.69-.96-.41-1.57-1.52-1.38-2.54"/>
      <path class="cls-24" d="m92.34,127.87c0-.26-1.73-.13-3.07-1.51-1.34-1.38-1.29-3.23-1.54-3.22-.11-.02-.3.43-.26,1.21.03.76.37,1.86,1.18,2.7.82.84,1.85,1.15,2.56,1.15.73.01,1.14-.22,1.12-.33"/>
      <path class="cls-24" d="m71.75,85.82c1.91-3.04,6.42-6.2,9.96-6.82,4.03-.7,6.45-.01,9.1,2.4,0,0,2.06,1.99,3.99,2.36,1.93.38,3.55.06,5.85,1.24,3.15,1.61,4.53,5.82,5.99,9.04,1.81,4,4.39,7.69,5.58,11.92,1.18,4.23.55,9.43-3.01,12,.68-3.61,1.24-7.63-.74-10.72-1.51-2.36-4.21-3.67-6.15-5.69-2.34-2.44-2.65-5.71-5.1-8.04-5.6-5.32-15.46,4.04-25.47-7.69"/>
      <path class="cls-24" d="m107.32,102.74c-1.46-3.54-3.03-7.09-5.52-10-3.1-3.61-7.56-6.02-12.28-6.63-4.72-.6-9.65.6-13.56,3.31l-.98.08c3.03,3.83,7.87,6.17,12.75,6.14,2.91-.01,6.06-.76,8.56.73,2.4,1.44,3.31,4.46,5.28,6.44,1.34,1.35,3.15,2.18,4.45,3.56,1.38,1.47,2.09,3.43,2.75,5.34.87-2.97-.28-6.13-1.45-8.99"/>
      <path class="cls-24" d="m81.3,91.85l-7.93-6.97c-6.18-.32-10.15,5.52-12.27,10.03-1.58,3.35-2.07,7.1-3.26,10.61-1.22,3.6-3.17,6.93-4.28,10.57s-1.26,7.87.93,10.98c.46-.85.92-1.7,1.38-2.54.23,3.52,1.73,6.94,4.16,9.49l.53-2.65c1.28,2.68,3.39,4.95,5.97,6.43l3.72,9.93c5.49-16.71-8.64-17.98,11.05-55.88"/>
      <path class="cls-24" d="m80.16,93.3c-.47,2.25-.97,4.52-1.86,6.64-.89,2.12-2.22,4.11-4.08,5.46-2.71,1.97-6.21,2.37-9.47,3.15-3.26.78-6.73,2.29-8.07,5.36.53-4.51,1.46-8.96,2.78-13.3,1.45-4.79,3.55-9.66,7.54-12.68,3.65-2.77,8.74-3.58,13.02-1.94"/>
      <path class="cls-15" d="m71.73,115.15c-.17-.41-7.86-2.95-7.73,5.15.13,7.87,8.02,6.09,8.03,5.87,0-.23-.3-11.02-.3-11.02"/>
      <path class="cls-14" d="m69.54,123.24s-.14.1-.37.21c-.22.11-.61.19-1.02.04-.84-.29-1.56-1.59-1.63-3.01-.03-.72.1-1.4.35-1.97.23-.58.59-.99,1.01-1.07.42-.1.72.14.82.36.11.22.06.38.1.39.02.02.17-.13.1-.46-.03-.15-.13-.34-.32-.49-.19-.15-.47-.22-.76-.19-.61.05-1.14.62-1.41,1.25-.3.63-.47,1.4-.43,2.2.08,1.58.92,3.05,2.06,3.36.56.13,1.01-.04,1.25-.23.24-.2.28-.38.25-.39"/>
      <path class="cls-2" d="m68.69,124.66c-.77-.12-1.59.44-1.75,1.2-.17.76.34,1.61,1.09,1.82.75.21,1.63-.24,1.89-.97.26-.73-.13-1.64-.85-1.95"/>
      <path class="cls-24" d="m69.06,124.76s.52.26.74,1.04c.1.37.07.87-.27,1.24-.32.37-.91.61-1.45.46-.54-.16-.91-.68-.99-1.16-.09-.5.15-.94.43-1.2.6-.54,1.19-.42,1.18-.49,0-.02-.12-.08-.37-.08-.24,0-.62.09-.97.37-.35.27-.68.81-.59,1.44.07.6.51,1.25,1.22,1.46.71.2,1.42-.12,1.81-.59.41-.48.42-1.12.26-1.53-.15-.43-.42-.7-.63-.83-.21-.13-.35-.15-.35-.13"/>
      <path class="cls-6" d="m63.65,124.3s-.1-.05-.24-.18c-.15-.13-.36-.32-.6-.61-.49-.55-1.13-1.44-1.64-2.68-.5-1.23-.85-2.85-.62-4.63.2-1.79,1.22-3.64,2.79-4.97,1.56-1.35,3.33-2.18,4.92-2.89,1.6-.69,3.03-1.3,4.17-1.92,2.31-1.22,3.34-2.53,3.41-2.46.02.02-.2.36-.72.9-.52.53-1.36,1.22-2.51,1.89-1.14.68-2.58,1.32-4.16,2.04-1.56.72-3.29,1.55-4.77,2.84-1.49,1.27-2.44,2.97-2.65,4.64-.24,1.67.05,3.23.49,4.43.91,2.44,2.24,3.52,2.14,3.59"/>
      <path class="cls-6" d="m62.95,119.63s-.19-.25-.35-.77c-.17-.52-.33-1.31-.28-2.29.04-.98.31-2.16.96-3.3.63-1.15,1.74-2.2,3.08-2.86,1.33-.69,2.68-1.09,3.85-1.56,1.17-.45,2.15-1,2.88-1.59,1.49-1.19,1.71-2.46,1.8-2.41.03,0,.01.31-.19.83-.2.51-.63,1.21-1.37,1.86-.73.66-1.75,1.27-2.93,1.76-1.18.5-2.51.92-3.79,1.57-1.28.64-2.29,1.58-2.91,2.64-.64,1.05-.92,2.15-1.01,3.08-.17,1.88.38,3,.27,3.03"/>
      <path class="cls-6" d="m80.67,93.82c-.16.06-.88-2.6-3.08-5.08-2.16-2.51-4.7-3.59-4.62-3.73.02-.06.69.13,1.66.67.97.53,2.23,1.45,3.35,2.73,1.12,1.28,1.86,2.65,2.25,3.69.4,1.04.49,1.72.44,1.73"/>
      <path class="cls-6" d="m116.83,122.74s-.37-.01-1.01-.13c-.64-.12-1.57-.34-2.68-.72-.55-.2-1.16-.44-1.77-.79-.61-.34-1.26-.78-1.73-1.48-.23-.34-.4-.76-.47-1.18-.03-.2-.06-.4-.09-.6-.04-.22-.07-.44-.07-.66-.03-.9.22-1.77.48-2.62.26-.85.52-1.67.55-2.46.04-.78-.23-1.52-.61-2.15-.78-1.26-1.9-2.14-2.72-2.96-.84-.8-1.56-1.4-2.08-1.79-.52-.38-.83-.56-.81-.6.03-.08,1.39.54,3.14,2.12.85.79,2,1.62,2.88,2.98.43.67.75,1.52.72,2.42-.03.89-.3,1.75-.56,2.6-.26.84-.49,1.67-.47,2.46,0,.2.02.39.06.58.03.21.06.41.08.61.06.37.19.71.38,1.01.38.6.97,1.03,1.54,1.37.57.35,1.15.59,1.68.82,2.16.82,3.59,1.1,3.57,1.2"/>
      <polygon class="cls-15" points="88.79 457.09 89.23 446.06 108.46 445.33 108.17 458.84 101.18 463.06 88.79 457.09"/>
      <path class="cls-10" d="m108.59,456.33v1.27s21.35,8.81,21.54,12.88l-42.57-.63.79-14.16c6.29,3.03,12.9,3.45,20.24.63"/>
      <g class="cls-3">
        <g class="cls-12">
          <path d="m108.59,456.33v1.27s21.35,8.81,21.54,12.88l-42.57-.63.79-14.16c6.29,3.03,12.9,3.45,20.24.63"/>
        </g>
      </g>
      <g class="cls-5">
        <g class="cls-21">
          <path class="cls-2" d="m92.59,460.29c-.83.21-1.41,1.13-1.23,1.97.18.84,1.11,1.44,1.94,1.24.83-.2,1.56-1.28,1.29-2.09-.27-.81-1.4-1.46-2.16-1.06"/>
        </g>
      </g>
      <g class="cls-5">
        <g class="cls-16">
          <path class="cls-2" d="m87.56,469.85l.19-3.4,40.73,1.85s1.88.85,1.65,2.19l-42.57-.63Z"/>
        </g>
      </g>
      <path class="cls-24" d="m108.73,457.71c-.01.21-1.05.29-2.08.94-1.05.63-1.59,1.52-1.78,1.43-.19-.04.14-1.28,1.4-2.05,1.26-.78,2.51-.51,2.46-.32"/>
      <path class="cls-24" d="m113.17,459.62c.04.2-.86.54-1.58,1.41-.74.85-.94,1.8-1.14,1.78-.2.03-.32-1.19.59-2.25.9-1.07,2.13-1.14,2.13-.94"/>
      <path class="cls-24" d="m115.63,465.01c-.19.04-.46-1,.09-2.13.54-1.13,1.53-1.57,1.61-1.39.11.17-.53.77-.96,1.71-.46.92-.53,1.8-.74,1.82"/>
      <polygon class="cls-15" points="71.5 457.34 71.94 446.31 91.17 445.58 90.88 459.09 83.89 463.31 71.5 457.34"/>
      <path class="cls-10" d="m91.3,456.58v1.27s21.35,8.81,21.54,12.88l-42.57-.63.79-14.16c6.29,3.03,12.9,3.45,20.24.63"/>
      <g class="cls-5">
        <g class="cls-23">
          <path class="cls-2" d="m75.3,460.54c-.83.21-1.41,1.13-1.23,1.97.18.83,1.11,1.43,1.94,1.24.83-.2,1.56-1.28,1.29-2.09-.27-.81-1.4-1.46-2.16-1.06"/>
        </g>
      </g>
      <g class="cls-5">
        <g class="cls-1">
          <path class="cls-2" d="m70.27,470.1l.19-3.4,40.73,1.85s1.88.85,1.65,2.18l-42.57-.63Z"/>
        </g>
      </g>
      <path class="cls-24" d="m91.44,457.96c-.01.21-1.05.29-2.08.94-1.05.63-1.59,1.52-1.78,1.43-.19-.04.14-1.28,1.4-2.05,1.26-.78,2.51-.51,2.46-.32"/>
      <path class="cls-24" d="m95.88,459.88c.04.2-.86.54-1.58,1.41-.74.85-.94,1.79-1.14,1.78-.2.03-.32-1.19.59-2.25.9-1.07,2.13-1.14,2.13-.94"/>
      <path class="cls-24" d="m98.33,465.26c-.19.04-.46-1,.09-2.13.54-1.14,1.53-1.57,1.61-1.4.11.17-.53.77-.96,1.71-.46.92-.53,1.8-.74,1.82"/>
      <path class="cls-15" d="m42.61,185.33s16,24.8,24.4,34.81c8.4,10,22.2,1.2,23.8-12.4,1.6-13.6,1.2-38.8,1.2-38.8l-11.18-6.65-7.23,34.41-9-16.75-22,5.4Z"/>
      <path class="cls-15" d="m92.02,168.92l4.8-12s2.25-1.09,2.83-1.64c.7-.66.57-4.96.37-5.76-.2-.8.78-3,.09-3.4s-2.62,0-2.69-.8c-.01-.17,1-2.21-.4-3.22-.5-.36-2.21-.4-2.21-.4l-.78-3.99s-3.2-4.19-5-2c0,0-6.8,8.2-7.4,9.4-.6,1.2-.78,15.1-.78,17.7"/>
      <path class="cls-14" d="m80.84,162.82s-.04-.25-.05-.72c0-.52-.02-1.21-.03-2.08,0-1.81,0-4.42.09-7.66.05-1.62.1-3.39.24-5.3.04-.48.08-.96.17-1.46.06-.56.42-1.01.7-1.42.6-.83,1.24-1.66,1.91-2.5,1.33-1.69,2.75-3.44,4.24-5.26.39-.43.68-.95,1.28-1.34.62-.37,1.39-.25,1.96.02,1.17.57,2.06,1.48,2.87,2.47l.04.04v.06c.09.38.17.8.25,1.22.18.93.36,1.86.54,2.77l-.25-.21c.53.02,1.04.06,1.56.16.26.06.53.11.81.3.22.18.43.38.57.64.29.51.3,1.09.23,1.6-.03.26-.1.51-.17.75l-.11.35-.02.07s0-.04,0-.02c0,.02,0,.05.03.07.04.08.26.16.47.2.22.04.45.05.69.07.24.02.48.03.73.07.25.06.5.05.8.33.24.3.21.59.21.84-.01.25-.05.49-.09.72-.08.46-.19.9-.25,1.33-.03.22-.04.4,0,.58.05.25.07.46.09.69.04.45.05.89.06,1.32,0,.87-.01,1.71-.13,2.55-.07.42-.11.82-.38,1.24-.33.39-.67.52-1.01.74-.67.39-1.34.73-1.99,1.05l.1-.1c-1.5,3.64-2.72,6.62-3.59,8.74-.42.99-.76,1.78-1.01,2.37-.24.54-.37.82-.39.82-.02,0,.08-.3.28-.86.23-.6.53-1.4.91-2.41.83-2.14,2-5.13,3.43-8.8l.03-.07.07-.04c.64-.32,1.3-.66,1.95-1.05.3-.19.7-.41.87-.64.16-.25.23-.67.29-1.05.1-.79.12-1.63.1-2.48-.01-.42-.03-.86-.07-1.29-.02-.21-.04-.44-.08-.62-.06-.26-.04-.52-.01-.75.06-.47.17-.91.25-1.35.04-.22.07-.44.08-.65.01-.21-.02-.43-.09-.49-.05-.06-.3-.14-.5-.16-.22-.03-.45-.05-.69-.06-.24-.02-.48-.03-.74-.07-.25-.06-.55-.08-.8-.4-.06-.08-.09-.17-.11-.27-.01-.03-.01-.12,0-.2l.03-.1.11-.35c.07-.23.12-.45.15-.68.06-.45.04-.92-.18-1.28-.09-.19-.25-.34-.42-.48-.14-.1-.38-.16-.61-.21-.47-.09-.98-.13-1.47-.15h-.21s-.04-.21-.04-.21c-.18-.91-.36-1.83-.54-2.77-.08-.42-.16-.83-.24-1.22l.05.11c-.76-.93-1.64-1.82-2.67-2.31-.51-.24-1.06-.3-1.49-.05-.41.24-.76.78-1.15,1.21-1.49,1.81-2.92,3.55-4.26,5.23-.67.84-1.32,1.66-1.91,2.47-.3.42-.59.78-.63,1.23-.09.47-.13.95-.18,1.42-.16,1.89-.24,3.66-.31,5.28-.11,3.19-.19,5.79-.26,7.65-.03.86-.05,1.55-.07,2.08-.02.48-.04.72-.05.72"/>
      <path class="cls-14" d="m94.8,141.7c.02.09-.83.21-2.1.63-.64.2-1.3.61-2.14,1.03-.87.41-1.89.53-2.91.69-2.07.18-3.56,1.41-4.25,2.53-.71,1.12-.61,2.02-.71,2.01-.04.03-.3-.92.39-2.2.34-.62.89-1.29,1.66-1.83.75-.57,1.8-.89,2.83-1.03,1.04-.16,2.01-.27,2.79-.61.78-.36,1.54-.78,2.22-.94,1.35-.34,2.21-.33,2.21-.28"/>
      <path class="cls-14" d="m91.84,142.15c-.11.09-.55-.32-.66-1.01-.12-.69.17-1.22.3-1.17.14.04.11.53.21,1.08.09.56.27,1.01.15,1.09"/>
      <path class="cls-14" d="m97.71,145.41c.04.13-2.76.89-6.32.92-.89,0-1.72-.05-2.35.23-.63.27-1.03.82-1.26,1.31-.42,1.01-.36,1.77-.46,1.76-.04.01-.26-.73.12-1.9.2-.56.62-1.24,1.4-1.61.78-.37,1.69-.3,2.54-.31,3.49-.03,6.29-.55,6.32-.4"/>
      <path class="cls-14" d="m99.65,148.91c.01.07-.56.26-1.52.35-.96.11-2.29.07-3.73.11-.72.03-1.4.07-1.96.24-.57.17-1.01.46-1.27.81-.55.73-.32,1.36-.4,1.36-.03.01-.13-.11-.18-.4-.04-.28,0-.72.28-1.17.26-.45.79-.86,1.43-1.07.64-.22,1.36-.27,2.09-.31,1.47-.04,2.78.05,3.73.04.94,0,1.53-.06,1.54.01"/>
      <path class="cls-14" d="m97.87,152.43c.1.05-.43.94-1.72,1.23l.2-.28c.02.23.05.45.07.68.15,1.51.15,2.74,0,2.75-.14.01-.38-1.19-.52-2.69-.02-.23-.04-.45-.06-.68l-.02-.24.22-.04c1.09-.18,1.72-.82,1.81-.73"/>
      <path class="cls-24" d="m118.95,232.03s14.23,31.42,14.23,51.07-14.03,83.9-14.03,83.9c0,0-1.87,17.78-3.74,41.48-1.87,23.7-7.17,43.98-7.17,43.98h-14.04l-22.77.62s-9.67-39.61-9.04-54.58c.62-14.97,3.12-32.13,3.12-32.13,0,0-12.16-49.59-14.35-58.64-.86-3.54-1.24-10.3-1.32-17.48-.15-14.79,2.61-29.46,8.03-43.23l3.97-10.09,57.11-4.91Z"/>
      <path class="cls-6" d="m97.96,294.85c-.15,0-1.85,35.17-3.78,78.55-1.93,43.4-3.37,78.58-3.22,78.58.15,0,1.85-35.16,3.78-78.56,1.93-43.38,3.37-78.57,3.22-78.57"/>
      <path class="cls-6" d="m101.03,280.8s.15-.61.31-1.74c.17-1.12.35-2.76.53-4.78.35-4.05.52-9.68.1-15.87-.43-6.19-1.37-11.75-2.26-15.71-.44-1.98-.85-3.57-1.17-4.66-.32-1.09-.51-1.69-.55-1.68-.04.01.08.63.33,1.73.26,1.1.6,2.71,1,4.69.79,3.97,1.67,9.5,2.09,15.67.42,6.16.31,11.76.07,15.8-.12,2.02-.24,3.66-.35,4.79-.1,1.13-.13,1.76-.09,1.76"/>
      <path class="cls-6" d="m53.2,262.3s.3.29.98.59c.68.29,1.74.56,3.07.51,2.66-.07,6.19-1.43,9.39-3.83,3.23-2.41,5.37-5.47,6.5-7.82.58-1.18.93-2.18,1.15-2.88.19-.71.28-1.1.24-1.11-.11-.04-.5,1.54-1.74,3.8-1.2,2.26-3.33,5.21-6.48,7.56-3.13,2.34-6.53,3.72-9.08,3.88-2.58.2-4-.83-4.03-.71"/>
      <path class="cls-6" d="m111.99,243.59s.05.37.23,1c.17.64.5,1.54.98,2.62.94,2.17,2.64,5.02,5.11,7.67,2.49,2.64,5.22,4.51,7.32,5.6,1.05.55,1.93.93,2.55,1.15.62.22.97.33.98.29.04-.09-1.32-.62-3.34-1.79-2.02-1.16-4.67-3.04-7.11-5.63-2.43-2.6-4.14-5.36-5.16-7.46-1.03-2.1-1.47-3.48-1.57-3.45"/>
      <path class="cls-6" d="m91.91,242.88s.06-.22.18-.57c.12-.35.38-.84.9-1.21.51-.37,1.33-.57,2.1-.27.77.28,1.43,1.1,1.42,2.05,0,.95-.65,1.77-1.42,2.05-.78.3-1.59.1-2.1-.27-.53-.37-.78-.87-.9-1.22-.12-.35-.14-.57-.18-.57-.03,0-.09.22-.03.62.06.39.29.99.87,1.47.57.48,1.54.78,2.52.44.96-.31,1.81-1.33,1.8-2.54.01-1.2-.84-2.23-1.8-2.54-.97-.34-1.95-.04-2.52.44-.59.48-.81,1.08-.87,1.48-.06.4,0,.62.03.62"/>
      <path class="cls-6" d="m72.5,365.46c-.08.14,3.3,2.15,7.55,4.51,4.24,2.35,7.74,4.15,7.82,4.02.07-.13-3.3-2.15-7.55-4.51-4.24-2.35-7.74-4.15-7.82-4.02"/>
      <path class="cls-9" d="m132.45,168.08c-4.35,6.6-21.94,33.36-27.14,41.27-.57.87.14,2.01,1.18,1.88l31.25-3.93c.33-.04.63-.22.83-.49l29.85-40.77c.62-.84-.04-2.02-1.08-1.94l-32.16,2.38c-1.12.08-2.13.67-2.74,1.61"/>
      <path class="cls-24" d="m132.45,168.08s.06-.14.25-.38c.19-.23.5-.56,1.01-.85.5-.31,1.24-.48,2.08-.51.85-.07,1.82-.15,2.91-.24,4.4-.35,10.73-.84,18.54-1.45,1.96-.15,4.01-.31,6.14-.47,1.07-.08,2.16-.17,3.27-.25.29-.02.53-.05.86-.05.33,0,.65.15.9.37.5.44.63,1.27.24,1.84-2.72,3.73-5.63,7.72-8.69,11.92-6.13,8.38-12.86,17.59-19.93,27.26-.45.61-.86,1.19-1.35,1.83-.15.16-.35.3-.56.38-.22.09-.44.1-.61.12l-1.1.14c-1.47.18-2.93.37-4.37.55-2.89.36-5.75.72-8.55,1.07-5.6.7-11.01,1.38-16.16,2.02-.33.04-.61.09-.99.11-.38,0-.77-.16-1.03-.43-.27-.27-.42-.65-.43-1.03-.01-.38.2-.78.38-1,.7-1.06,1.38-2.1,2.06-3.12,1.36-2.05,2.67-4.04,3.94-5.97,2.54-3.85,4.92-7.43,7.08-10.71,4.33-6.52,7.84-11.81,10.29-15.49,1.21-1.81,2.16-3.22,2.82-4.2.32-.46.56-.82.74-1.08.17-.24.26-.36.27-.36,0,0-.07.14-.22.39-.17.27-.4.64-.7,1.11-.64.99-1.56,2.42-2.74,4.25-2.41,3.7-5.87,9.02-10.15,15.58-2.15,3.29-4.5,6.89-7.03,10.75-1.26,1.93-2.57,3.93-3.92,5.98-.67,1.03-1.36,2.07-2.05,3.13-.2.28-.29.47-.3.74,0,.25.11.51.29.69.18.19.44.29.7.29.26-.01.62-.07.93-.11,5.15-.65,10.56-1.34,16.16-2.05,2.8-.35,5.65-.71,8.55-1.08,1.45-.18,2.9-.37,4.37-.55l1.1-.14c.2-.03.36-.04.48-.09.14-.05.26-.14.36-.24.44-.59.87-1.18,1.31-1.78,7.08-9.66,13.83-18.86,19.97-27.24,3.07-4.18,5.98-8.15,8.71-11.87.28-.4.19-.97-.16-1.29-.17-.16-.39-.26-.63-.26-.23,0-.55.03-.81.05-1.11.08-2.2.16-3.27.23-2.14.15-4.19.3-6.15.44-7.81.54-14.15.98-18.55,1.29-1.09.07-2.06.14-2.91.19-.85.02-1.54.16-2.04.44-1.01.56-1.28,1.17-1.31,1.13"/>
      <path class="cls-24" d="m168.43,166.03s-.22.05-.66.1c-.48.05-1.11.11-1.9.19-1.7.15-4.1.36-7.06.63-6.06.49-14.45,1.18-24.02,1.96l.19-.11c-1.5,2.23-3.06,4.55-4.61,6.95-6.34,9.74-11.87,18.7-16.06,25.07-2.08,3.19-3.81,5.75-5.01,7.51-.59.84-1.06,1.51-1.41,2.01-.33.46-.51.69-.52.68-.01,0,.14-.26.43-.74.33-.51.77-1.2,1.33-2.06,1.18-1.84,2.83-4.42,4.87-7.59,4.1-6.42,9.59-15.4,15.93-25.15,1.56-2.4,3.11-4.72,4.62-6.95l.07-.1h.12c9.57-.72,17.97-1.34,24.03-1.79,2.97-.2,5.37-.36,7.08-.48.79-.04,1.42-.08,1.9-.11.43-.02.66-.02.66,0"/>
      <path class="cls-2" d="m149.05,171.86h0s0,0,.01,0h-.01Z"/>
      <path class="cls-2" d="m149.83,172.33c-.08-.37-.43-.53-.77-.47-.37.11-.56.2-.84.47-.28.28-.4.76-.15,1.07.31.39.95.24,1.33-.08.29-.25.51-.62.43-1"/>
      <path class="cls-15" d="m135.23,195.46s-1.23-2.94,1.9-3.32c3.13-.38,11.35,0,11.35,0,0,0,4.49.47,3.54,3.7,0,0,2.66,2.37,1.23,4.93-1.42,2.56-1.99,1.8-1.99,1.8,0,0,.38,3.13-1.99,3.61,0,0-2.57,3.04-4.94,2.85-2.37-.19-12.42-5.03-13.09-5.98-.66-.95-1.61-1.49-1.04-2.55,0,0-1.23-2.78,1.42-3.2,0,0,.19-2.32,3.61-1.84"/>
      <path class="cls-14" d="m149.49,196.52c0,.07-.81.12-2.12.15-1.31.03-3.11.03-5.1,0-1.99-.07-3.79.01-5.12-.3-1.35-.31-1.88-1.1-1.82-1.12.05-.07.62.56,1.89.76,1.24.21,3.07.08,5.05.14,1.99.03,3.79.09,5.1.15,1.3.07,2.11.14,2.11.22"/>
      <path class="cls-14" d="m147.25,201.26s-.23.14-.68.23c-.45.1-1.13.17-1.96.12-.83-.05-1.81-.22-2.85-.52-1.05-.29-2.17-.69-3.34-1.05-1.18-.36-2.32-.63-3.37-.69-1.03-.05-2.13-.02-2.87-.58-.36-.26-.61-.61-.68-.98-.07-.36,0-.67.12-.89.25-.45.58-.48.57-.45.03.04-.24.14-.39.54-.16.38-.08,1.09.59,1.48.64.44,1.59.39,2.69.4,1.11.05,2.3.31,3.49.68,1.17.38,2.28.75,3.33,1.09,1.02.31,1.96.52,2.75.61,1.6.2,2.59-.08,2.6.01"/>
      <path class="cls-14" d="m143.89,205.27c-.02.07-.83-.08-2.11-.41-1.28-.32-3.05-.83-4.97-1.46-1.92-.63-3.64-1.27-4.87-1.76-1.23-.5-1.97-.85-1.94-.92.05-.14,3.14.94,6.98,2.19,3.83,1.26,6.96,2.22,6.92,2.36"/>
      <path class="cls-14" d="m144.7,208.99c-.01.06-.69.04-1.75-.2-1.07-.23-2.5-.72-4-1.41-1.51-.69-2.82-1.39-3.78-1.89-.95-.51-1.53-.84-1.5-.91.07-.15,2.53.93,5.49,2.32,2.96,1.42,5.56,1.95,5.54,2.09"/>
      <path class="cls-10" d="m49.73,153.33s-12.86,5.35-9.67,22.37c3.19,17.02,4.85,22.7,4.85,22.7l25.35-13.34-20.54-31.73Z"/>
      <path class="cls-24" d="m69.73,185.34s-.31.24-.93.6c-.61.36-1.51.86-2.62,1.47-2.22,1.22-5.31,2.88-8.74,4.68-3.43,1.8-6.54,3.41-8.81,4.55-1.13.57-2.06,1.02-2.7,1.33-.64.3-1.01.45-1.02.42-.02-.03.31-.24.93-.6.61-.36,1.51-.86,2.62-1.47,2.22-1.22,5.31-2.88,8.74-4.68,3.43-1.8,6.54-3.41,8.81-4.55,1.13-.57,2.06-1.02,2.7-1.33.64-.3,1.01-.45,1.02-.42"/>
      <path class="cls-24" d="m69.73,185.34c-.07.03-.57-.88-1.39-2.36-.91-1.62-2.01-3.58-3.22-5.74-1.22-2.16-2.33-4.11-3.24-5.73-.82-1.48-1.29-2.41-1.23-2.44.06-.04.65.83,1.55,2.25.9,1.43,2.11,3.42,3.38,5.66,1.27,2.24,2.36,4.3,3.09,5.83.74,1.52,1.12,2.5,1.06,2.52"/>
    </g>
  </g>
  <text class="cls-11" transform="translate(178.78 79.54)"><tspan x="0" y="0">Hypersoft</tspan></text>
</svg>